<svg xmlns="http://www.w3.org/2000/svg" viewBox="0 0 512 512">
  <rect width="512" height="512" rx="64" fill="#1a1a2e"/>
  <g opacity="0.15" stroke="#4444aa" stroke-width="2" fill="none">
    <line x1="128" y1="0" x2="128" y2="512"/>
    <line x1="256" y1="0" x2="256" y2="512"/>
    <line x1="384" y1="0" x2="384" y2="512"/>
    <line x1="0" y1="128" x2="512" y2="128"/>
    <line x1="0" y1="256" x2="512" y2="256"/>
    <line x1="0" y1="384" x2="512" y2="384"/>
  </g>
  <g transform="translate(256,240)">
    <ellipse cx="0" cy="0" rx="100" ry="110" fill="#ff4444"/>
    <ellipse cx="-35" cy="-20" rx="25" ry="30" fill="#1a1a2e"/>
    <ellipse cx="35" cy="-20" rx="25" ry="30" fill="#1a1a2e"/>
    <polygon points="-15,30 0,55 15,30" fill="#1a1a2e"/>
    <rect x="-50" y="60" width="20" height="30" rx="4" fill="#1a1a2e"/>
    <rect x="-15" y="60" width="20" height="30" rx="4" fill="#1a1a2e"/>
    <rect x="20" y="60" width="20" height="30" rx="4" fill="#1a1a2e"/>
  </g>
  <text x="256" y="430" text-anchor="middle" font-family="monospace" font-weight="bold" font-size="48" fill="#ffcc00">CGOD</text>
</svg>
